<?xml version="1.0" standalone="no"?>
<!DOCTYPE svg PUBLIC "-//W3C//DTD SVG 1.1//EN" "http://www.w3.org/Graphics/SVG/1.1/DTD/svg11.dtd" >
<svg xmlns="http://www.w3.org/2000/svg" xmlns:xlink="http://www.w3.org/1999/xlink" version="1.1">
<metadata></metadata>
<defs>
<font id="dystopianregular" horiz-adv-x="695" >
<font-face units-per-em="1000" ascent="844" descent="-156" />
<missing-glyph horiz-adv-x="215" />
<glyph unicode="&#xfb01;" horiz-adv-x="544" d="M149 0h-78v705h240v-75h-162v-221h151v-74h-151v-335zM399.5 666.5q-14.5 14.5 -14.5 34.5t14.5 34.5t34.5 14.5t34.5 -14.5t14.5 -34.5t-14.5 -34.5t-34.5 -14.5t-34.5 14.5zM473 1h-78v549h78v-549z" />
<glyph unicode="&#xfb02;" horiz-adv-x="537" d="M149 0h-78v705h240v-75h-162v-221h151v-74h-151v-335zM466 0h-78v705h78v-705z" />
<glyph horiz-adv-x="0" />
<glyph horiz-adv-x="333" />
<glyph unicode=" "  horiz-adv-x="215" />
<glyph unicode="&#x09;" horiz-adv-x="215" />
<glyph unicode="&#xa0;" horiz-adv-x="215" />
<glyph unicode="!" horiz-adv-x="256" d="M169 175h-78v530h78v-530zM95 6.5q-14 14.5 -14 34.5t14 34.5t34 14.5q21 0 35.5 -14.5t14.5 -34.5t-14.5 -34.5t-35.5 -14.5q-20 0 -34 14.5z" />
<glyph unicode="&#x22;" horiz-adv-x="333" d="M87 513h-60l45 190h89zM232 513h-60l45 190h89z" />
<glyph unicode="#" horiz-adv-x="683" d="M185 35h-82l41 161h-134l20 75h133l41 159h-135l20 74h134l42 167h81l-42 -167h155l42 167h81l-43 -167h124l-20 -74h-122l-40 -159h122l-19 -75h-122l-41 -161h-81l41 161h-156zM283 432l-41 -164h160l40 164h-159z" />
<glyph unicode="$" horiz-adv-x="555" d="M240 -12q-56 7 -102 35t-72.5 71t-26.5 93h79q0 -35 21.5 -64.5t57.5 -46.5t79 -17q44 0 80 17t57 47.5t21 67.5q0 42 -21 68t-55 41t-89 30q-69 20 -110 37.5t-72 55.5t-31 102q0 47 24 87t66 67.5t94 35.5v61h79v-61q54 -7 98 -34t69.5 -68.5t25.5 -89.5h-78 q0 34 -20.5 62t-54.5 44t-75 16q-63 0 -106.5 -33t-43.5 -84q0 -39 20 -62t50.5 -35.5t88.5 -28.5q68 -19 113 -40.5t75.5 -63t30.5 -107.5q0 -50 -25.5 -93t-69.5 -71.5t-98 -36.5v-66h-79v64z" />
<glyph unicode="%" horiz-adv-x="876" d="M120 375.5q-43 25.5 -68 68.5t-25 94t25 93.5t68 67.5t94 25t94 -25t68.5 -67.5t25.5 -93.5t-25.5 -94t-68.5 -68.5t-94 -25.5t-94 25.5zM248 1h-81l452 708h80zM300.5 451.5q35.5 35.5 35.5 86.5q0 50 -35.5 85.5t-86.5 35.5q-33 0 -61 -16.5t-44.5 -44.5t-16.5 -60 q0 -51 36 -86.5t86 -35.5q51 0 86.5 35.5zM558.5 11q-44.5 26 -70.5 70.5t-26 97.5t26 97t70.5 70t96.5 26q53 0 97.5 -26t70.5 -70t26 -97t-26 -97.5t-70.5 -70.5t-97.5 -26q-52 0 -96.5 26zM745.5 88.5q37.5 37.5 37.5 90.5q0 34 -17 63.5t-46.5 46.5t-64.5 17 q-34 0 -63.5 -17t-46.5 -46.5t-17 -63.5q0 -35 17 -64.5t46.5 -46.5t63.5 -17q53 0 90.5 37.5z" />
<glyph unicode="&#x26;" horiz-adv-x="609" d="M166.5 19q-56.5 34 -89 90.5t-32.5 124.5q0 74 43.5 132t110.5 80q-26 19 -41 49.5t-15 63.5q0 44 21.5 81t58.5 58.5t81 21.5q45 0 82 -22t58 -59.5t21 -83.5h-74q0 39 -25 64.5t-61 25.5q-37 0 -62.5 -25.5t-25.5 -60.5t25 -60.5t61 -25.5h23v-74h-31q-47 0 -86.5 -22 t-62.5 -60.5t-23 -85.5t22 -86t60.5 -62t85.5 -23q48 0 86.5 23t61 63t22.5 91h-84v65h239v-65h-76q0 -71 -33.5 -128.5t-90.5 -90.5t-125 -33t-124.5 34z" />
<glyph unicode="'" horiz-adv-x="185" d="M87 512h-60l45 190h89z" />
<glyph unicode="(" horiz-adv-x="283" d="M149 -141q-55 90 -83.5 208.5t-28.5 245.5q0 126 28.5 244t83.5 208h86q-59 -87 -89.5 -206t-30.5 -247q0 -129 31 -248t90 -205h-87z" />
<glyph unicode=")" horiz-adv-x="283" d="M47 -141q59 86 90 205t31 248q0 128 -30.5 247t-89.5 206h86q55 -90 83.5 -208t28.5 -244q0 -127 -28.5 -245.5t-83.5 -208.5h-87z" />
<glyph unicode="*" horiz-adv-x="450" d="M264 288h-78l12 163l-130 -97l-41 66l150 76l-150 76l41 67l130 -98l-12 164h78l-12 -164l130 98l41 -67l-150 -76l150 -76l-41 -66l-130 97z" />
<glyph unicode="+" horiz-adv-x="493" d="M284 146h-75v174h-172v71h172v174h75v-174h172v-71h-172v-174z" />
<glyph unicode="," horiz-adv-x="188" d="M87 -102h-60l45 190h89z" />
<glyph unicode="-" horiz-adv-x="356" d="M326 233h-296v71h296v-71z" />
<glyph unicode="." horiz-adv-x="165" d="M47.5 6.5q-14.5 14.5 -14.5 34.5t14.5 34.5t34.5 14.5t34.5 -14.5t14.5 -34.5t-14.5 -34.5t-34.5 -14.5t-34.5 14.5z" />
<glyph unicode="/" horiz-adv-x="394" d="M82 -159h-82l311 864h83z" />
<glyph unicode="0" horiz-adv-x="811" d="M221 34.5q-85 49.5 -135 133.5t-50 184q0 101 49.5 185.5t134.5 133.5t186 49q100 0 185 -49t134.5 -133.5t49.5 -185.5q0 -100 -49.5 -184t-134.5 -133.5t-185 -49.5t-185 49.5zM552 99q67 39 106 106t39 147q0 81 -39 148t-106 106t-146 39t-146 -39t-106 -106 t-39 -148q0 -80 39 -147t106 -106t146 -39t146 39z" />
<glyph unicode="1" horiz-adv-x="280" d="M195 0h-77v630h-101v75h178v-705z" />
<glyph unicode="2" horiz-adv-x="519" d="M32 0v87l282 271q39 37 58.5 72t19.5 77q0 37 -18 69t-50 50.5t-71 18.5q-59 0 -98 -41t-39 -101h-79q0 60 28 109.5t78.5 78.5t113.5 29q61 0 110 -28.5t76.5 -77.5t27.5 -106q1 -59 -25 -108.5t-77 -97.5l-235 -222v-5h342v-75h-444z" />
<glyph unicode="3" horiz-adv-x="538" d="M141.5 18q-55.5 33 -88 88t-32.5 120h79q0 -46 21.5 -84t59 -60t84.5 -22q46 0 83.5 22.5t58.5 61t21 84.5q0 47 -23 84.5t-62 58.5t-86 21h-102l174 238h-246v75h381l-179 -242v-3h10q58 -4 106.5 -37t76.5 -84.5t28 -110.5q0 -66 -32.5 -122t-88.5 -88.5t-121 -32.5 q-67 0 -122.5 33z" />
<glyph unicode="4" horiz-adv-x="545" d="M448 0h-79v142h-352v62l331 501h100v-491h66v-72h-66v-142zM366 601l-256 -387h261v387h-5z" />
<glyph unicode="5" horiz-adv-x="551" d="M144.5 18q-56.5 33 -89.5 89t-33 123h79q0 -47 22 -86t61 -61.5t86 -22.5q46 0 84.5 22.5t61 61t22.5 84.5t-19.5 84.5t-55.5 61.5t-82 23q-37 0 -68 -11.5t-51 -32.5h-90l96 352h288v-75h-230l-54 -198h7q44 36 116 36q64 0 115 -32.5t79 -87.5t28 -120q0 -67 -33 -123 t-89.5 -88t-125.5 -32q-68 0 -124.5 33z" />
<glyph unicode="6" horiz-adv-x="560" d="M154 19q-58 34 -92 91t-34 124q0 74 41 137l212 334h93l-159 -247l4 -2q36 21 80 21q64 0 117.5 -33.5t84.5 -89.5t31 -120q0 -67 -34.5 -124t-92.5 -91t-125 -34q-68 0 -126 34zM366.5 83.5q39.5 23.5 63 63t23.5 86.5q0 48 -23 88t-63 63t-88 23t-87 -23t-62 -63 t-23 -88q0 -47 23 -86.5t62 -63t87 -23.5t87.5 23.5z" />
<glyph unicode="7" horiz-adv-x="465" d="M119 0h-88l305 627v3h-312v75h436z" />
<glyph unicode="8" horiz-adv-x="539" d="M150.5 16.5q-54.5 31.5 -86.5 86t-32 118.5q0 65 41 122t99 81q-30 17 -52 52.5t-22 72.5q0 47 23.5 86t63 62t85.5 23t85.5 -23t62.5 -62t23 -86q0 -37 -21 -71.5t-53 -53.5q59 -25 99.5 -81.5t40.5 -121.5q0 -64 -32 -118.5t-86.5 -86t-118.5 -31.5q-65 0 -119.5 31.5z M338.5 475.5q28.5 28.5 28.5 70.5t-28.5 70.5t-68.5 28.5q-41 0 -69.5 -28.5t-28.5 -70.5t28.5 -70.5t69.5 -28.5q40 0 68.5 28.5zM349.5 81q36.5 21 58 57.5t21.5 80.5q0 45 -21.5 81.5t-58 57.5t-79.5 21t-79.5 -21t-58 -57.5t-21.5 -81.5q0 -44 21.5 -80.5t58 -57.5 t79.5 -21t79.5 21z" />
<glyph unicode="9" horiz-adv-x="560" d="M406.5 686q57.5 -34 91.5 -91.5t34 -124.5q0 -72 -40 -136l-213 -334h-93l160 247l-4 2q-36 -21 -81 -21q-64 0 -117 33.5t-84 89.5t-31 120q0 67 34 124t92 91t126 34t125.5 -34zM193 621q-40 -23 -63 -62.5t-23 -86.5q0 -48 23 -88t63 -63.5t88 -23.5t87 23.5t62 63.5 t23 88q0 47 -23 86.5t-62 62.5t-87 23t-88 -23z" />
<glyph unicode=":" horiz-adv-x="166" d="M47.5 475q-14.5 14 -14.5 35q0 20 15 34.5t35 14.5t34.5 -14.5t14.5 -34.5q0 -21 -14.5 -35t-34.5 -14q-21 0 -35.5 14zM48 7.5q-15 14.5 -15 34.5t15 34.5t35 14.5t34.5 -14.5t14.5 -34.5t-14.5 -34.5t-34.5 -14.5t-35 14.5z" />
<glyph unicode=";" horiz-adv-x="203" d="M82.5 473.5q-14.5 14.5 -14.5 34.5t14.5 35t34.5 15t34.5 -15t14.5 -35t-14.5 -34.5t-34.5 -14.5t-34.5 14.5zM87 -103h-60l45 190h89z" />
<glyph unicode="&#x3c;" horiz-adv-x="394" d="M20 389l337 158v-83l-248 -112l248 -113v-83l-337 158v75z" />
<glyph unicode="=" horiz-adv-x="493" d="M456 428h-419v71h419v-71zM456 215h-419v72h419v-72z" />
<glyph unicode="&#x3e;" horiz-adv-x="394" d="M37 464v83l337 -158v-75l-337 -158v83l248 113z" />
<glyph unicode="?" horiz-adv-x="481" d="M172 218q0 45 17 77t40.5 51.5t59.5 42.5q44 30 65 56t21 70q0 54 -40.5 90t-99.5 36q-60 0 -100 -33.5t-40 -86.5h-78q0 56 27.5 101t77.5 71t113 26t113 -26.5t78 -72t28 -101.5q0 -50 -18 -85.5t-42.5 -56t-63.5 -45.5q-41 -27 -60 -52t-19 -65v-42h-79v45zM176.5 6.5 q-14.5 14.5 -14.5 34.5t14.5 34.5t34.5 14.5q21 0 35 -14.5t14 -34.5t-14 -34.5t-35 -14.5q-20 0 -34.5 14.5z" />
<glyph unicode="@" horiz-adv-x="811" d="M390 -9q-96 0 -178.5 49t-130.5 133t-48 183t48.5 183t130.5 133t178 49q97 0 179 -49t130 -133t48 -183v-213h-220v89h-4q-20 -35 -57.5 -55t-77.5 -20q-54 0 -100 27t-73 73t-27 101q0 54 27 100t73 73t100 27q55 0 101 -27t73 -73t27 -100v-146h89v144q0 84 -39 151.5 t-105 105.5t-144 38t-143.5 -38.5t-104.5 -105.5t-39 -151q0 -82 39 -149.5t105 -106.5t143 -39v-70zM458 237.5q32 18.5 51 50.5t19 70t-19 70t-51 50.5t-70 18.5q-37 0 -69 -18.5t-51 -50.5t-19 -70t19 -70t51 -50.5t69 -18.5q38 0 70 18.5z" />
<glyph unicode="A" horiz-adv-x="622" d="M96 0h-84l250 705h97l251 -705h-84l-45 127h-340zM166 201h288l-131 375q-6 18 -13 41h-2q-4 -18 -12 -41z" />
<glyph unicode="B" horiz-adv-x="631" d="M88 0v705h282q53 0 98 -26.5t71 -70.5t26 -94q0 -51 -26.5 -93.5t-72.5 -62.5q55 -19 86 -64.5t31 -103.5q0 -50 -26 -93.5t-71 -70t-100 -26.5h-298zM364 390q51 0 85.5 35.5t34.5 84.5t-34.5 84.5t-85.5 35.5h-198v-240h198zM381 74q51 0 86 35t35 85q0 53 -35 87.5 t-98 34.5h-203v-242h215z" />
<glyph unicode="C" horiz-adv-x="688" d="M223 34.5q-84 49.5 -133.5 134t-49.5 186.5q0 100 49.5 184t133.5 132.5t185 48.5q74 0 142.5 -29.5t118.5 -81.5l-47 -51q-42 41 -96.5 63.5t-117.5 22.5q-79 0 -144.5 -38t-103.5 -104t-38 -147q0 -83 38 -150t103.5 -105.5t144.5 -38.5q61 0 114 22t93 61l49 -52 q-50 -50 -116.5 -78.5t-139.5 -28.5q-101 0 -185 49.5z" />
<glyph unicode="D" horiz-adv-x="699" d="M88 0v705h218q96 0 177 -47.5t128.5 -128.5t47.5 -177t-47.5 -176.5t-128.5 -128t-177 -47.5h-218zM306 74q74 0 137 37t100 101t37 140t-37 140t-100 101.5t-137 37.5h-140v-557h140z" />
<glyph unicode="E" horiz-adv-x="570" d="M533 0h-445v705h445v-74h-367v-241h310v-74h-310v-242h367v-74z" />
<glyph unicode="F" horiz-adv-x="553" d="M166 0h-78v705h446v-74h-368v-241h312v-74h-312v-316z" />
<glyph unicode="G" horiz-adv-x="748" d="M223 34.5q-84 49.5 -133.5 134t-49.5 183.5q0 101 49.5 185.5t133.5 133.5t184 49q77 0 150 -30.5t122 -86.5l-50 -51q-49 48 -101.5 71.5t-120.5 23.5q-78 0 -144.5 -39.5t-105 -107t-38.5 -148.5q0 -80 38.5 -147.5t105 -106.5t144.5 -39q63 0 115 20t95 64v171h-164 v74h243v-267q-42 -53 -115 -94.5t-174 -41.5q-100 0 -184 49.5z" />
<glyph unicode="H" horiz-adv-x="713" d="M167 0h-79v704h79v-315h381v315h77v-704h-77v315h-381v-315z" />
<glyph unicode="I" horiz-adv-x="255" d="M167 0h-79v704h79v-704z" />
<glyph unicode="J" horiz-adv-x="528" d="M123 13.5q-49 28.5 -76.5 77.5t-27.5 107h78q0 -58 38.5 -98t97.5 -40q60 0 99 37.5t39 97.5v510h78v-507q0 -61 -29 -109.5t-78.5 -76t-108.5 -27.5q-61 0 -110 28.5z" />
<glyph unicode="K" horiz-adv-x="592" d="M166 0h-78v705h78v-325h147l189 325h87l-210 -359l200 -346h-87l-179 306h-147v-306z" />
<glyph unicode="L" horiz-adv-x="500" d="M487 -1h-399v706h77v-631h322v-75z" />
<glyph unicode="M" horiz-adv-x="856" d="M88 -1v706h113l226 -605h2l226 605h113v-706h-78v585h-3q-9 -32 -20 -63l-199 -521h-80l-199 521q-11 31 -20 63h-3v-585h-78z" />
<glyph unicode="N" horiz-adv-x="709" d="M88 0v705h84l334 -526q13 -20 24 -44l10 -20h2v588h79v-703h-88l-339 534q-16 26 -26 51h-2v-585h-78z" />
<glyph unicode="O" horiz-adv-x="814" d="M223.5 33.5q-84.5 49.5 -134 134t-49.5 184.5t49.5 184t134 133t183.5 49q100 0 184.5 -49t133.5 -133t49 -184t-49 -184.5t-133.5 -134t-184.5 -49.5q-99 0 -183.5 49.5zM553.5 99q66.5 39 105 106t38.5 147t-38.5 147t-105 106t-146.5 39t-146 -39t-104 -106t-38 -147 t38 -147t104 -106t146 -39t146.5 39z" />
<glyph unicode="P" horiz-adv-x="571" d="M88 0v705h205q67 0 123.5 -32.5t89.5 -89t33 -124.5q0 -66 -33 -122.5t-89.5 -89.5t-123.5 -33h-126v-214h-79zM293 288q46 0 84.5 22.5t61 62t22.5 86.5q0 48 -22.5 87.5t-61 62.5t-84.5 23h-126v-344h126z" />
<glyph unicode="Q" horiz-adv-x="826" d="M223 34.5q-84 49.5 -133.5 134t-49.5 184.5q0 99 49.5 183.5t133.5 134t184 49.5q101 0 186 -49.5t134.5 -134t49.5 -183.5q0 -70 -25.5 -132.5t-71.5 -111.5l85 -110h-99l-43 57q-99 -71 -216 -71q-100 0 -184 49.5zM556.5 100q66.5 40 104 107.5t37.5 145.5 q0 80 -38.5 147.5t-105 106.5t-147.5 39t-147 -39t-104 -106.5t-38 -147.5q0 -81 38 -148t104 -106t147 -39q83 0 149.5 40z" />
<glyph unicode="R" horiz-adv-x="583" d="M89 0l-1 705h207q68 0 124 -32.5t89 -88.5t33 -124q0 -81 -49 -144t-124 -84l158 -232h-92l-147 214h-119v-214h-79zM295 289q45 0 83.5 22.5t61 62t22.5 86.5q0 48 -22.5 87.5t-61 62.5t-83.5 23h-127v-344h127z" />
<glyph unicode="S" horiz-adv-x="558" d="M156 12.5q-54 27.5 -85.5 74t-31.5 102.5h78q0 -35 21.5 -64.5t58 -46.5t78.5 -17q44 0 80.5 17t57 45.5t20.5 62.5q0 45 -19.5 71t-51.5 40t-94 32q-66 19 -106.5 37.5t-71 56.5t-30.5 102q0 53 30.5 98t83.5 71t115 26t114.5 -26.5t82.5 -71.5t30 -98h-78q0 52 -43 87 t-107 35q-42 0 -75.5 -15.5t-53 -42.5t-19.5 -59q0 -36 17 -58.5t47.5 -37t85.5 -30.5q72 -21 114 -39.5t74.5 -60t32.5 -113.5q0 -57 -32 -104t-86 -74t-119 -27q-64 0 -118 27.5z" />
<glyph unicode="T" horiz-adv-x="471" d="M276 -1h-79v633h-184v73h445v-73h-182v-633z" />
<glyph unicode="U" horiz-adv-x="671" d="M203.5 19q-59.5 34 -94 93t-34.5 130v463h79v-467q0 -50 23.5 -91t65 -64t93.5 -23t93.5 23t65 64t23.5 91v467h78v-463q0 -72 -34 -130.5t-93.5 -92.5t-132.5 -34t-132.5 34z" />
<glyph unicode="V" horiz-adv-x="618" d="M264 0l-252 705h83l197 -557q7 -20 16 -54h2q4 21 16 54l196 557h83l-251 -705h-90z" />
<glyph unicode="W" horiz-adv-x="956" d="M227 0l-194 705h81l147 -541l16 -69h4q7 34 10 46l5 23l147 541h69l148 -541q12 -46 16 -69h3l15 67l148 543h81l-194 -705h-96l-141 520q-5 18 -13 56h-3l-15 -57l-140 -519h-94z" />
<glyph unicode="X" horiz-adv-x="579" d="M106 0h-93l235 359l-223 346h93l172 -278l171 278h93l-222 -346l235 -359h-93l-184 292z" />
<glyph unicode="Y" horiz-adv-x="583" d="M252 0v283l-246 422h89l186 -318q3 -5 9 -20h2l10 20l186 318h89l-246 -422v-283h-79z" />
<glyph unicode="Z" horiz-adv-x="539" d="M507 0h-476v76l379 554h-371v75h461v-83l-375 -547h382v-75z" />
<glyph unicode="[" horiz-adv-x="302" d="M258 -151h-177v909h177v-72h-99v-765h99v-72z" />
<glyph unicode="\" horiz-adv-x="394" d="M83 705l311 -864h-82l-312 864h83z" />
<glyph unicode="]" horiz-adv-x="302" d="M221 758v-909h-177v72h99v765h-99v72h177z" />
<glyph unicode="_" horiz-adv-x="563" d="M564 -93h-564v71h564v-71z" />
<glyph unicode="`" horiz-adv-x="175" d="M158 628h-60l-81 162h87z" />
<glyph unicode="a" d="M167.5 24q-64.5 39 -101.5 105.5t-37 145.5q0 80 37 146.5t101 105t142 38.5q81 0 142.5 -41.5t91.5 -109.5h4v136h77v-549h-77v136h-4q-33 -74 -94.5 -113t-139.5 -39q-77 0 -141.5 39zM430.5 88.5q48.5 28.5 76 78t27.5 108.5q0 60 -27.5 109.5t-76 78t-107.5 28.5 q-60 0 -108.5 -28.5t-76.5 -78t-28 -109.5q0 -59 28 -108.5t76.5 -78t108.5 -28.5q59 0 107.5 28.5z" />
<glyph unicode="b" horiz-adv-x="694" d="M247 24q-63 39 -96 113h-3v-136h-77v704h78v-291h4q30 68 92 109.5t143 41.5q77 0 140.5 -38.5t100 -105t36.5 -146.5q0 -79 -36.5 -145.5t-100.5 -105.5t-140 -39q-78 0 -141 39zM479.5 88.5q48.5 28.5 76.5 78t28 108.5q0 60 -28 109.5t-76.5 78t-108.5 28.5 q-59 0 -107.5 -28.5t-76 -78t-27.5 -109.5q0 -59 27.5 -108.5t76 -78t107.5 -28.5q60 0 108.5 28.5z" />
<glyph unicode="c" horiz-adv-x="543" d="M175 22.5q-67 39.5 -106.5 106.5t-39.5 146t39.5 146t106.5 106.5t146 39.5q62 0 117.5 -24.5t96.5 -68.5l-53 -52q-30 33 -71.5 51.5t-89.5 18.5q-58 0 -107 -29t-78 -79t-29 -109q0 -60 29 -109.5t78 -78.5t107 -29q45 0 84.5 16.5t69.5 45.5l53 -52q-41 -41 -94 -63 t-113 -22q-79 0 -146 39.5z" />
<glyph unicode="d" horiz-adv-x="694" d="M166 24q-64 39 -100.5 105.5t-36.5 145.5q0 80 36.5 146.5t100 105t140.5 38.5q81 0 143 -41.5t92 -109.5h4v291h78v-704h-77v136h-3q-33 -74 -96 -113t-141 -39q-76 0 -140 39zM430.5 88.5q48.5 28.5 76 78t27.5 108.5q0 60 -27.5 109.5t-76 78t-107.5 28.5 q-60 0 -108.5 -28.5t-76.5 -78t-28 -109.5q0 -59 28 -108.5t76.5 -78t108.5 -28.5q59 0 107.5 28.5z" />
<glyph unicode="e" horiz-adv-x="648" d="M175.5 25q-67.5 39 -107 106t-39.5 147q0 79 39.5 145t107 104t148.5 38t149 -38t107 -104.5t39 -146.5q0 -16 -1 -26h-506q4 -52 34 -95.5t77 -69t102 -25.5q63 0 114.5 32.5t76.5 86.5h86q-30 -86 -106 -139.5t-172 -53.5q-81 0 -148.5 39zM534 314q-5 49 -34.5 89.5 t-75.5 63.5t-101 23t-101 -23t-75 -63.5t-34 -89.5h421z" />
<glyph unicode="f" horiz-adv-x="324" d="M149 0h-78v705h240v-75h-162v-221h151v-74h-151v-335z" />
<glyph unicode="g" horiz-adv-x="632" d="M65 -158v146h76v-78h375v20q-7 1 -50 12l-231 68q-102 32 -154 104.5t-52 162.5q0 76 37 138.5t101 98.5t143 36h260v-59h-77q-15 0 -23 2h-5q53 -35 84.5 -92.5t31.5 -123.5q0 -61 -25 -112.5t-69.5 -86.5t-100.5 -46v-5q38 -6 55 -11l139 -38v-136h-515zM404.5 105.5 q45.5 26.5 72 71.5t26.5 100q0 54 -25.5 98.5t-70 71.5t-97.5 28q-59 -1 -105.5 -27.5t-72 -71t-25.5 -99.5t26.5 -100t72 -71.5t99.5 -26.5t99.5 26.5z" />
<glyph unicode="h" horiz-adv-x="625" d="M149 705v-155h405v-550h-78v474h-327v-474h-78v705h78z" />
<glyph unicode="i" horiz-adv-x="220" d="M75.5 666.5q-14.5 14.5 -14.5 34.5t14.5 34.5t34.5 14.5t34.5 -14.5t14.5 -34.5t-14.5 -34.5t-34.5 -14.5t-34.5 14.5zM149 1h-78v549h78v-549z" />
<glyph unicode="j" horiz-adv-x="220" d="M75.5 666.5q-14.5 14.5 -14.5 34.5t14.5 34.5t34.5 14.5t34.5 -14.5t14.5 -34.5t-14.5 -34.5t-34.5 -14.5t-34.5 14.5zM150 -157h-175v71h96v636h79v-707z" />
<glyph unicode="k" horiz-adv-x="559" d="M149 0h-78v708h78v-379h122l139 221h85l-140 -221h157v-329h-78v255h-285v-255z" />
<glyph unicode="l" horiz-adv-x="220" d="M149 0h-78v705h78v-705z" />
<glyph unicode="m" horiz-adv-x="1030" d="M959 550v-550h-78v474h-327v-474h-78v474h-327v-474h-78v550h888z" />
<glyph unicode="n" horiz-adv-x="625" d="M149 0h-78v550h483v-550h-78v474h-327v-474z" />
<glyph unicode="o" horiz-adv-x="641" d="M175 24q-67 39 -106.5 105.5t-39.5 144.5q0 79 39.5 145.5t106.5 105t146 38.5t146 -38.5t106.5 -105t39.5 -145.5q0 -78 -39.5 -144.5t-106.5 -105.5t-146 -39t-146 39zM428 88.5q49 28.5 77.5 77.5t28.5 108q0 61 -28.5 110t-77.5 76.5t-107 27.5q-59 0 -108 -27.5 t-77.5 -76.5t-28.5 -110q0 -59 29 -108t78 -77.5t107 -28.5t107 28.5z" />
<glyph unicode="p" d="M71 -157v706h77v-139h4q28 71 92 112t145 41q76 0 139.5 -39t100.5 -105t37 -145q0 -80 -37 -146.5t-100.5 -105t-139.5 -38.5q-80 0 -140.5 39t-94.5 110h-4v-290h-79zM480 86q49 28 77.5 77.5t28.5 110.5t-28.5 110t-77.5 76.5t-108 27.5q-58 0 -106.5 -27.5 t-76.5 -76.5t-28 -110t28 -110.5t76.5 -77.5t106.5 -28q59 0 108 28z" />
<glyph unicode="q" horiz-adv-x="696" d="M625 -157h-80v290h-3q-34 -71 -94.5 -110t-140.5 -39q-76 0 -140 38.5t-101 105t-37 146.5q0 79 37 145t101 105t140 39q80 0 144.5 -41t91.5 -112h4v139h78v-706zM429.5 86q48.5 28 77 77.5t28.5 110.5t-28.5 110t-77 76.5t-106.5 27.5t-107 -27.5t-77.5 -76.5 t-28.5 -110t28.5 -110.5t77.5 -77.5t107 -28t106.5 28z" />
<glyph unicode="r" horiz-adv-x="405" d="M149 0h-78v550h329v-75h-251v-475z" />
<glyph unicode="s" horiz-adv-x="463" d="M126 7.5q-45 22.5 -70.5 60t-25.5 81.5h78q0 -37 35 -63.5t87 -26.5q51 0 85 25.5t34 63.5q0 31 -17 50.5t-43 29.5t-69 20q-89 22 -134.5 58t-45.5 102q0 44 26 80t70 56.5t96 20.5t96 -21t69.5 -57.5t25.5 -80.5h-78q0 37 -33 61.5t-80 24.5q-46 0 -80 -23.5t-34 -59.5 q0 -28 17 -45t40.5 -25.5t71.5 -21.5q58 -15 92.5 -29.5t61 -48t26.5 -90.5q0 -45 -26.5 -82.5t-72.5 -59.5t-100 -22q-57 0 -102 22.5z" />
<glyph unicode="t" horiz-adv-x="305" d="M275 0h-173v475h-94v75h94v155h78v-155h102v-75h-102v-400h95v-75z" />
<glyph unicode="u" horiz-adv-x="573" d="M169 12.5q-52 27.5 -82 79t-30 119.5v339h79v-343q0 -70 42 -108.5t108 -38.5q67 0 109 39t42 108v343h78v-339q0 -68 -30 -119.5t-82 -79t-117 -27.5t-117 27.5z" />
<glyph unicode="v" horiz-adv-x="515" d="M300 0h-85l-213 550h83l173 -442l172 442h84z" />
<glyph unicode="w" horiz-adv-x="753" d="M261 0h-87l-166 549h82l133 -443l119 444h70l119 -444l133 444l81 -1l-165 -549h-87l-116 435z" />
<glyph unicode="x" horiz-adv-x="471" d="M96 0h-93l189 281l-181 269h95l129 -206l129 206h94l-181 -269l190 -281h-93l-139 216z" />
<glyph unicode="y" horiz-adv-x="531" d="M200 -157h-85l113 235l-226 472h85l185 -384l172 384h85z" />
<glyph unicode="z" horiz-adv-x="457" d="M435 0h-414v72l311 404h-298v73h392v-77l-307 -399h316v-73z" />
<glyph unicode="{" horiz-adv-x="290" d="M194 -156q-39 0 -67 27.5t-28 67.5v305q0 11 -8 19t-19 8h-32v70h31q11 0 19 8.5t8 19.5v305q0 39 27.5 66.5t67.5 27.5h40v-70h-39q-11 0 -18.5 -7.5t-7.5 -18.5v-309q0 -16 -6.5 -31.5t-18.5 -24.5q13 -9 20 -25t7 -33v-309q0 -11 8 -18.5t18 -7.5h37v-70h-39z" />
<glyph unicode="|" horiz-adv-x="247" d="M159 -101h-71v906h71v-906z" />
<glyph unicode="}" horiz-adv-x="290" d="M57 -156v70h37q11 0 18.5 7.5t7.5 18.5v309q0 17 7 33t20 25q-12 9 -18.5 24.5t-6.5 31.5v309q0 11 -7.5 18.5t-18.5 7.5h-39v70h40q40 0 67.5 -27.5t27.5 -66.5v-305q0 -11 8 -19.5t19 -8.5h31v-70h-32q-11 0 -19 -8t-8 -19v-305q0 -40 -28 -67.5t-67 -27.5h-39z" />
<glyph unicode="&#xa1;" horiz-adv-x="259" d="M164.5 541.5q14.5 -14.5 14.5 -34.5t-14.5 -34.5t-35.5 -14.5q-20 0 -34 14.5t-14 34.5t14 34.5t34 14.5q21 0 35.5 -14.5zM91 -157v529h78v-529h-78z" />
<glyph unicode="&#xa2;" horiz-adv-x="500" d="M142 185q-40 27 -62.5 70t-22.5 93q0 55 27 101t73 73t101 27q40 0 73 -13l22 41h50l-33 -62q53 -36 73 -96h-72q-13 21 -34 35l-122 -227q21 -8 42 -8q34 0 63.5 15.5t47.5 42.5h75q-20 -57 -70.5 -93t-114.5 -36q-42 0 -78 15l-30 -55h-49zM295 471q-18 6 -37 6 q-36 0 -66 -17t-47.5 -46.5t-17.5 -65.5q0 -30 13.5 -56t36.5 -43z" />
<glyph unicode="&#xa3;" horiz-adv-x="499" d="M27 77q53 26 106.5 75.5t56.5 87.5h-121v66h105q-11 22 -45 58q-38 42 -58.5 76.5t-20.5 86.5q0 54 27 98t73 69.5t100 25.5h10q54 0 99.5 -27t72 -72.5t26.5 -99.5h-70q0 33 -17.5 62t-47 46t-63.5 17h-10q-53 0 -91 -36t-38 -88q0 -39 18.5 -67t55.5 -64 q26 -26 41 -44.5t22 -40.5h113v-66h-106q-4 -44 -40.5 -89t-75.5 -76v-2h302v-73h-424v77z" />
<glyph unicode="&#xa5;" horiz-adv-x="639" d="M357 0h-77v246h-243v60h243v59h-243v60h208l-196 280h89l181 -264l180 264h89l-195 -280h209v-60h-245v-59h245v-60h-245v-246z" />
<glyph unicode="&#xa6;" horiz-adv-x="247" d="M159 419h-71v386h71v-386zM159 -101h-71v387h71v-387z" />
<glyph unicode="&#xa7;" horiz-adv-x="553" d="M470 148q41 -43 41 -112q0 -57 -32 -103.5t-86 -73.5t-119 -27q-63 0 -117 27.5t-86 74t-32 101.5h78q0 -35 21.5 -64t57.5 -46t78 -17q44 0 80.5 17t57.5 46.5t21 64.5q0 42 -23.5 66t-57.5 35t-93 23q-68 14 -108 28.5t-68 46.5t-28 89q0 52 45 91q-45 40 -45 110 q0 53 30.5 98t83.5 71t115 26t114.5 -26.5t82.5 -71.5t30 -98h-78q0 34 -20 62.5t-54.5 44.5t-74.5 16q-42 0 -76 -15.5t-53.5 -43t-19.5 -60.5q0 -37 22 -59t55 -33t89 -23q68 -14 110 -29t71 -49.5t29 -94.5q0 -55 -41 -92zM156.5 273.5q21.5 -21.5 53 -32t88.5 -23.5 q45 -10 71 -17t50 -18q14 22 14 47q0 41 -23 65t-57 35.5t-92 23.5q-28 6 -57.5 13.5t-51.5 16.5q-17 -23 -17 -52q0 -37 21.5 -58.5z" />
<glyph unicode="&#xa8;" horiz-adv-x="260" d="M30 649q-13 13 -13 31q0 19 13 31.5t31 12.5t30.5 -12.5t12.5 -31.5q0 -18 -12.5 -31t-30.5 -13t-31 13zM169 649q-13 13 -13 31q0 19 13 31.5t31 12.5t30.5 -12.5t12.5 -31.5q0 -18 -12.5 -31t-30.5 -13t-31 13z" />
<glyph unicode="&#xa9;" horiz-adv-x="531" d="M151.5 294q-52.5 31 -83.5 83.5t-31 114.5q0 61 31 113.5t83.5 83.5t113.5 31q62 0 114.5 -31t83.5 -83.5t31 -113.5q0 -62 -31 -114.5t-83.5 -83.5t-114.5 -31q-61 0 -113.5 31zM357.5 332q42.5 25 67 67.5t24.5 92.5t-24.5 92t-67 66.5t-92.5 24.5t-92 -24.5 t-66.5 -66.5t-24.5 -92t24.5 -92.5t66.5 -67.5t92 -25t92.5 25zM184.5 405.5q-34.5 34.5 -34.5 83.5t34.5 83.5t83.5 34.5q41 0 72 -24.5t40 -60.5h-46q-7 18 -25 30.5t-41 12.5q-31 0 -53.5 -22t-22.5 -54t22 -54t54 -22q41 0 64 36h47q-12 -33 -42 -55.5t-69 -22.5 q-49 0 -83.5 34.5z" />
<glyph unicode="&#xaa;" horiz-adv-x="456" d="M337 712h72v-352h-72v78q-19 -41 -54 -64t-82 -23q-49 0 -89 25t-62.5 68t-22.5 94t22.5 93.5t62.5 67t89 24.5q47 0 82 -23t54 -63v75zM298.5 452q34.5 35 34.5 86q0 50 -34.5 84.5t-84.5 34.5q-49 0 -83.5 -35t-34.5 -84q0 -51 34.5 -86t83.5 -35q50 0 84.5 35z" />
<glyph unicode="&#xab;" horiz-adv-x="414" d="M206 95h-89l-90 172l90 171h89l-96 -171zM384 95h-89l-90 172l90 171h89l-96 -171z" />
<glyph unicode="&#xad;" horiz-adv-x="356" d="M326 233h-296v71h296v-71z" />
<glyph unicode="&#xae;" horiz-adv-x="531" d="M150.5 294q-52.5 31 -83 83.5t-30.5 114.5t30.5 114t83 83t114.5 31t114.5 -31t83.5 -83.5t31 -113.5q0 -62 -31 -114.5t-83.5 -83.5t-114.5 -31t-114.5 31zM357.5 332q42.5 25 67 67.5t24.5 92.5t-24.5 92t-67 66.5t-92.5 24.5t-92 -24.5t-66.5 -66.5t-24.5 -92 t24.5 -92.5t66.5 -67.5t92 -25t92.5 25zM193 372v237h79q37 0 61 -22t24 -62q0 -31 -15.5 -49t-39.5 -25l48 -79h-48l-45 76h-24v-76h-40zM273 481q20 0 32 11t12 34t-12 34t-32 12h-40v-91h40z" />
<glyph unicode="&#xaf;" horiz-adv-x="389" d="M372 650h-355v60h355v-60z" />
<glyph unicode="&#xb0;" horiz-adv-x="357" d="M107.5 453.5q-32.5 18.5 -51.5 51t-19 72.5q0 60 40.5 100t101.5 40q60 0 100.5 -40t40.5 -100q0 -61 -40.5 -101.5t-100.5 -40.5q-39 0 -71.5 18.5zM235 520.5q22 22.5 22 56.5q0 33 -22 55t-56 22t-56.5 -22t-22.5 -55q0 -34 22.5 -56.5t56.5 -22.5t56 22.5z" />
<glyph unicode="&#xb1;" horiz-adv-x="493" d="M284 183h-75v146h-172v72h172v151h75v-151h172v-72h-172v-146zM456 35h-419v72h419v-72z" />
<glyph unicode="&#xb2;" horiz-adv-x="343" d="M32 311v74l152 127q23 21 34 39t11 41q0 31 -17 47t-48 16q-64 0 -64 -65h-65q0 58 35.5 94t99.5 36q58 0 93.5 -33.5t35.5 -89.5q0 -67 -65 -117l-118 -101v-3h185v-65h-269z" />
<glyph unicode="&#xb3;" horiz-adv-x="345" d="M293 362.5q-20 -31.5 -53 -49t-71 -17.5q-65 0 -106.5 41t-41.5 103l68 1q0 -34 21.5 -56t57.5 -22q34 0 55 22t21 55q-1 38 -21 59t-57 21h-79l96 124h-130v62h240l-108 -137v-1h7q55 -4 88 -40.5t33 -92.5q0 -41 -20 -72.5z" />
<glyph unicode="&#xb4;" horiz-adv-x="175" d="M77 628h-60l53 162h88z" />
<glyph unicode="&#xb6;" horiz-adv-x="652" d="M300 -161v423h-49q-61 0 -111.5 28t-79.5 78.5t-29 116.5q0 67 29 117t79 76.5t112 26.5h125v-866h-76zM564 -161h-76v866h76v-866zM300 338v293h-49q-63 0 -103.5 -39t-40.5 -107t40.5 -107.5t103.5 -39.5h49z" />
<glyph unicode="&#xb7;" horiz-adv-x="165" d="M47.5 291.5q-14.5 14.5 -14.5 34.5t14.5 34.5t34.5 14.5t34.5 -14.5t14.5 -34.5t-14.5 -34.5t-34.5 -14.5t-34.5 14.5z" />
<glyph unicode="&#xb8;" horiz-adv-x="135" d="M17 -106q22 0 35 10.5t13 30.5q0 16 -11.5 26t-30.5 10v31q42 0 68.5 -18t26.5 -57q0 -44 -27 -64t-74 -20v51z" />
<glyph unicode="&#xb9;" horiz-adv-x="230" d="M145 305h-71v336h-57v64l128 1v-401z" />
<glyph unicode="&#xba;" horiz-adv-x="428" d="M120 375.5q-43 25.5 -68 68.5t-25 94t25 93.5t68 67.5t94 25t94 -25t68.5 -67.5t25.5 -93.5t-25.5 -94t-68.5 -68.5t-94 -25.5t-94 25.5zM298.5 452q34.5 35 34.5 86q0 50 -34.5 84.5t-84.5 34.5t-84 -34.5t-34 -84.5q0 -51 34 -86t84 -35t84.5 35z" />
<glyph unicode="&#xbb;" horiz-adv-x="414" d="M209 267l-90 -172h-89l96 172l-96 171h89zM387 267l-90 -172h-89l96 172l-96 171h89z" />
<glyph unicode="&#xbc;" horiz-adv-x="644" d="M107 1h-77l452 708h77zM155 305h-71v336h-57v65h128v-401zM580 0h-68v82h-208v54l175 265h101v-259h37v-60h-37v-82zM510 345l-139 -203h142v203h-3z" />
<glyph unicode="&#xbd;" horiz-adv-x="679" d="M107 1h-77l452 708h77zM155 305h-71v336h-57v65h128v-401zM383 1v73l152 128q23 20 33.5 38t10.5 42q0 31 -16.5 47t-47.5 16q-32 0 -48.5 -16.5t-16.5 -48.5h-64q0 58 35.5 93.5t99.5 35.5q58 0 93 -33.5t35 -89.5q0 -35 -16 -63t-49 -54l-117 -100v-4h185v-64h-269z " />
<glyph unicode="&#xbe;" horiz-adv-x="741" d="M130 1l452 708h77l-452 -708h-77zM293.5 363q-19.5 -32 -52.5 -49.5t-72 -17.5q-63 0 -104 41t-41 103l68 1q0 -34 21.5 -56t57.5 -22q34 0 55 22t21 55q-1 38 -21 58.5t-57 20.5h-79l94 125h-138v62h250l-108 -137v-1h7q53 -3 85.5 -40t32.5 -94q0 -39 -19.5 -71z M677 401v-259h37v-60h-37v-82h-68v82h-208v54l175 265h101zM467 142h142v203h-2z" />
<glyph unicode="&#xbf;" horiz-adv-x="481" d="M301 543.5q15 -14.5 15 -34.5t-15 -34.5t-35 -14.5t-34.5 14.5t-14.5 34.5t14.5 34.5t34.5 14.5t35 -14.5zM305 331q0 -44 -17 -76t-40 -52t-60 -43q-44 -29 -65 -55.5t-21 -70.5q0 -35 19 -63.5t51 -45t70 -16.5q60 0 100 33.5t40 86.5h79q0 -56 -28 -101t-78 -71 t-113 -26q-62 0 -112 26.5t-78.5 72.5t-28.5 101q0 50 18 85.5t42.5 56t63.5 45.5q41 27 60.5 52t19.5 65v42h78v-46z" />
<glyph unicode="&#xc0;" horiz-adv-x="622" d="M96 0h-84l250 705h97l251 -705h-84l-45 127h-340zM166 201h288l-131 375q-6 18 -13 41h-2q-4 -18 -12 -41zM340 783h-60l-81 162h87z" />
<glyph unicode="&#xc1;" horiz-adv-x="622" d="M96 0h-84l250 705h97l251 -705h-84l-45 127h-340zM166 201h288l-131 375q-6 18 -13 41h-2q-4 -18 -12 -41zM342 783h-60l53 162h88z" />
<glyph unicode="&#xc2;" horiz-adv-x="622" d="M96 0h-84l250 705h97l251 -705h-84l-45 127h-340zM166 201h288l-131 375q-6 18 -13 41h-2q-4 -18 -12 -41zM268 786h-69l85 130h56l84 -130h-70l-42 83z" />
<glyph unicode="&#xc3;" horiz-adv-x="622" d="M96 0h-84l250 705h97l251 -705h-84l-45 127h-340zM166 201h288l-131 375q-6 18 -13 41h-2q-4 -18 -12 -41zM334.5 801q-16.5 6 -37.5 17q-18 10 -29 14.5t-23 4.5q-26 0 -43 -26l-54 36q36 55 97 55q21 -1 37 -6.5t38 -17.5q15 -9 26.5 -13.5t23.5 -4.5q9 0 24.5 6 t28.5 24l52 -38q-22 -32 -51.5 -44.5t-53.5 -12.5q-19 0 -35.5 6z" />
<glyph unicode="&#xc4;" horiz-adv-x="622" d="M96 0h-84l250 705h97l251 -705h-84l-45 127h-340zM166 201h288l-131 375q-6 18 -13 41h-2q-4 -18 -12 -41zM211 804q-13 13 -13 31q0 19 13 31.5t31 12.5t30.5 -12.5t12.5 -31.5q0 -18 -12.5 -31t-30.5 -13t-31 13zM350 804q-13 13 -13 31q0 19 13 31.5t31 12.5 t30.5 -12.5t12.5 -31.5q0 -18 -12.5 -31t-30.5 -13t-31 13z" />
<glyph unicode="&#xc5;" horiz-adv-x="622" d="M96 0h-84l250 705h97l251 -705h-84l-45 127h-340zM166 201h288l-131 375q-6 18 -13 41h-2q-4 -18 -12 -41zM241.5 789q-28.5 29 -28.5 70q0 40 28.5 69t69.5 29q40 0 69 -29t29 -69q0 -41 -29 -70t-69 -29q-41 0 -69.5 29zM347 822q15 15 15 37q0 21 -15 36t-36 15 t-36 -15t-15 -36q0 -22 15 -37t36 -15t36 15z" />
<glyph unicode="&#xc6;" horiz-adv-x="903" d="M104 0h-92l403 705h451v-75h-334l2 -238h259v-75h-258l2 -242h329v-75h-406l-2 161h-263zM452 611l-217 -375h223l-4 375h-2z" />
<glyph unicode="&#xc7;" horiz-adv-x="688" d="M664 92q-49 -49 -113 -77.5t-135 -29.5q41 -18 41 -65q0 -44 -27.5 -64t-74.5 -20v51q23 0 35.5 10.5t12.5 30.5q0 16 -11 26t-30 10v24q-90 11 -163.5 62t-116 131t-42.5 174q0 100 49.5 184t133.5 132.5t185 48.5q74 0 142.5 -29.5t118.5 -81.5l-47 -51 q-42 41 -96.5 63.5t-117.5 22.5q-79 0 -144.5 -38t-103.5 -104t-38 -147q0 -83 38 -150t103.5 -105.5t144.5 -38.5q61 0 114 22t93 61z" />
<glyph unicode="&#xc8;" horiz-adv-x="570" d="M533 0h-445v705h445v-74h-367v-241h310v-74h-310v-242h367v-74zM345 783h-60l-81 162h87z" />
<glyph unicode="&#xc9;" horiz-adv-x="570" d="M533 0h-445v705h445v-74h-367v-241h310v-74h-310v-242h367v-74zM348 783h-60l53 162h88z" />
<glyph unicode="&#xca;" horiz-adv-x="570" d="M533 0h-445v705h445v-74h-367v-241h310v-74h-310v-242h367v-74zM273 786h-69l85 130h56l84 -130h-70l-42 83z" />
<glyph unicode="&#xcb;" horiz-adv-x="570" d="M533 0h-445v705h445v-74h-367v-241h310v-74h-310v-242h367v-74zM216 804q-13 13 -13 31q0 19 13 31.5t31 12.5t30.5 -12.5t12.5 -31.5q0 -18 -12.5 -31t-30.5 -13t-31 13zM355 804q-13 13 -13 31q0 19 13 31.5t31 12.5t30.5 -12.5t12.5 -31.5q0 -18 -12.5 -31t-30.5 -13 t-31 13z" />
<glyph unicode="&#xcc;" horiz-adv-x="255" d="M167 0h-79v704h79v-704zM156 783h-60l-81 162h87z" />
<glyph unicode="&#xcd;" horiz-adv-x="255" d="M167 0h-79v704h79v-704zM159 783h-60l53 162h88z" />
<glyph unicode="&#xce;" horiz-adv-x="255" d="M167 0h-79v704h79v-704zM84 786h-69l85 130h56l84 -130h-70l-42 83z" />
<glyph unicode="&#xcf;" horiz-adv-x="255" d="M167 0h-79v704h79v-704zM27 804q-13 13 -13 31q0 19 13 31.5t31 12.5t30.5 -12.5t12.5 -31.5q0 -18 -12.5 -31t-30.5 -13t-31 13zM166 804q-13 13 -13 31q0 19 13 31.5t31 12.5t30.5 -12.5t12.5 -31.5q0 -18 -12.5 -31t-30.5 -13t-31 13z" />
<glyph unicode="&#xd0;" horiz-adv-x="699" d="M306 705q96 0 177 -47.5t128.5 -128.5t47.5 -177t-47.5 -176.5t-128.5 -128t-177 -47.5h-218v705h218zM306 74q74 0 137 37t100 101t37 140t-37 140t-100 101.5t-137 37.5h-140v-236h189v-74h-189v-247h140z" />
<glyph unicode="&#xd1;" horiz-adv-x="709" d="M88 0v705h84l334 -526q13 -20 24 -44l10 -20h2v588h79v-703h-88l-339 534q-16 26 -26 51h-2v-585h-78zM383.5 801q-16.5 6 -37.5 17q-18 10 -29 14.5t-23 4.5q-26 0 -43 -26l-54 36q36 55 97 55q21 -1 37 -6.5t38 -17.5q15 -9 26.5 -13.5t23.5 -4.5q9 0 24.5 6t28.5 24 l52 -38q-22 -32 -51.5 -44.5t-53.5 -12.5q-19 0 -35.5 6z" />
<glyph unicode="&#xd2;" horiz-adv-x="814" d="M223.5 33.5q-84.5 49.5 -134 134t-49.5 184.5t49.5 184t134 133t183.5 49q100 0 184.5 -49t133.5 -133t49 -184t-49 -184.5t-133.5 -134t-184.5 -49.5q-99 0 -183.5 49.5zM553.5 99q66.5 39 105 106t38.5 147t-38.5 147t-105 106t-146.5 39t-146 -39t-104 -106t-38 -147 t38 -147t104 -106t146 -39t146.5 39zM436 783h-60l-81 162h87z" />
<glyph unicode="&#xd3;" horiz-adv-x="814" d="M223.5 33.5q-84.5 49.5 -134 134t-49.5 184.5t49.5 184t134 133t183.5 49q100 0 184.5 -49t133.5 -133t49 -184t-49 -184.5t-133.5 -134t-184.5 -49.5q-99 0 -183.5 49.5zM553.5 99q66.5 39 105 106t38.5 147t-38.5 147t-105 106t-146.5 39t-146 -39t-104 -106t-38 -147 t38 -147t104 -106t146 -39t146.5 39zM438 783h-60l53 162h88z" />
<glyph unicode="&#xd4;" horiz-adv-x="814" d="M223.5 33.5q-84.5 49.5 -134 134t-49.5 184.5t49.5 184t134 133t183.5 49q100 0 184.5 -49t133.5 -133t49 -184t-49 -184.5t-133.5 -134t-184.5 -49.5q-99 0 -183.5 49.5zM553.5 99q66.5 39 105 106t38.5 147t-38.5 147t-105 106t-146.5 39t-146 -39t-104 -106t-38 -147 t38 -147t104 -106t146 -39t146.5 39zM364 786h-69l85 130h56l84 -130h-70l-42 83z" />
<glyph unicode="&#xd5;" horiz-adv-x="814" d="M223.5 33.5q-84.5 49.5 -134 134t-49.5 184.5t49.5 184t134 133t183.5 49q100 0 184.5 -49t133.5 -133t49 -184t-49 -184.5t-133.5 -134t-184.5 -49.5q-99 0 -183.5 49.5zM553.5 99q66.5 39 105 106t38.5 147t-38.5 147t-105 106t-146.5 39t-146 -39t-104 -106t-38 -147 t38 -147t104 -106t146 -39t146.5 39zM430.5 801q-16.5 6 -37.5 17q-18 10 -29 14.5t-23 4.5q-26 0 -43 -26l-54 36q36 55 97 55q21 -1 37 -6.5t38 -17.5q15 -9 26.5 -13.5t23.5 -4.5q9 0 24.5 6t28.5 24l52 -38q-22 -32 -51.5 -44.5t-53.5 -12.5q-19 0 -35.5 6z" />
<glyph unicode="&#xd6;" horiz-adv-x="814" d="M223.5 33.5q-84.5 49.5 -134 134t-49.5 184.5t49.5 184t134 133t183.5 49q100 0 184.5 -49t133.5 -133t49 -184t-49 -184.5t-133.5 -134t-184.5 -49.5q-99 0 -183.5 49.5zM553.5 99q66.5 39 105 106t38.5 147t-38.5 147t-105 106t-146.5 39t-146 -39t-104 -106t-38 -147 t38 -147t104 -106t146 -39t146.5 39zM307 804q-13 13 -13 31q0 19 13 31.5t31 12.5t30.5 -12.5t12.5 -31.5q0 -18 -12.5 -31t-30.5 -13t-31 13zM446 804q-13 13 -13 31q0 19 13 31.5t31 12.5t30.5 -12.5t12.5 -31.5q0 -18 -12.5 -31t-30.5 -13t-31 13z" />
<glyph unicode="&#xd7;" horiz-adv-x="425" d="M212 305l-120 -120l-55 55l120 121l-120 120l55 55l120 -119l121 119l56 -55l-121 -120l121 -121l-56 -55z" />
<glyph unicode="&#xd8;" horiz-adv-x="814" d="M652 625q57 -51 89.5 -122t32.5 -151q0 -100 -49 -184.5t-133.5 -134t-184.5 -49.5q-105 0 -193 55l-38 -50l-50 40l37 49q-58 51 -90.5 122t-32.5 152q0 100 49.5 184t134 133t183.5 49q105 0 194 -54l38 51l50 -41zM142.5 234.5q23.5 -54.5 65.5 -95.5l348 465 q-69 40 -149 40t-146 -39t-104 -106t-38 -147q0 -63 23.5 -117.5zM553.5 99q66.5 39 105 106t38.5 147q0 62 -23.5 117.5t-66.5 95.5l-348 -465q69 -40 148 -40q80 0 146.5 39z" />
<glyph unicode="&#xd9;" horiz-adv-x="671" d="M203.5 19q-59.5 34 -94 93t-34.5 130v463h79v-467q0 -50 23.5 -91t65 -64t93.5 -23t93.5 23t65 64t23.5 91v467h78v-463q0 -72 -34 -130.5t-93.5 -92.5t-132.5 -34t-132.5 34zM365 781h-60l-81 162h87z" />
<glyph unicode="&#xda;" horiz-adv-x="671" d="M203.5 19q-59.5 34 -94 93t-34.5 130v463h79v-467q0 -50 23.5 -91t65 -64t93.5 -23t93.5 23t65 64t23.5 91v467h78v-463q0 -72 -34 -130.5t-93.5 -92.5t-132.5 -34t-132.5 34zM367 781h-60l53 162h88z" />
<glyph unicode="&#xdb;" horiz-adv-x="671" d="M203.5 19q-59.5 34 -94 93t-34.5 130v463h79v-467q0 -50 23.5 -91t65 -64t93.5 -23t93.5 23t65 64t23.5 91v467h78v-463q0 -72 -34 -130.5t-93.5 -92.5t-132.5 -34t-132.5 34zM292 784h-69l85 130h56l84 -130h-70l-42 83z" />
<glyph unicode="&#xdc;" horiz-adv-x="671" d="M203.5 19q-59.5 34 -94 93t-34.5 130v463h79v-467q0 -50 23.5 -91t65 -64t93.5 -23t93.5 23t65 64t23.5 91v467h78v-463q0 -72 -34 -130.5t-93.5 -92.5t-132.5 -34t-132.5 34zM236 802q-13 13 -13 31q0 19 13 31.5t31 12.5t30.5 -12.5t12.5 -31.5q0 -18 -12.5 -31 t-30.5 -13t-31 13zM375 802q-13 13 -13 31q0 19 13 31.5t31 12.5t30.5 -12.5t12.5 -31.5q0 -18 -12.5 -31t-30.5 -13t-31 13z" />
<glyph unicode="&#xdd;" horiz-adv-x="583" d="M252 0v283l-246 422h89l186 -318q3 -5 9 -20h2l10 20l186 318h89l-246 -422v-283h-79zM323 783h-60l53 162h88z" />
<glyph unicode="&#xde;" horiz-adv-x="571" d="M293 583q112 0 179 -59.5t67 -161.5q0 -67 -30.5 -117t-86 -77.5t-129.5 -27.5h-126v-140h-79v705h79v-122h126zM293 215q79 0 123.5 39t44.5 108q0 70 -44.5 109.5t-123.5 39.5h-126v-296h126z" />
<glyph unicode="&#xdf;" horiz-adv-x="515" d="M67 560q1 46 22.5 82.5t58 57t80.5 20.5t81 -21.5t58.5 -58.5t21.5 -81q0 -33 -15 -63.5t-41 -49.5q66 -22 105 -74.5t40 -126.5q0 -68 -31 -123.5t-85 -88.5t-121 -33v75q46 0 82 22t56.5 61t20.5 87q-1 69 -46 111.5t-115 42.5h-31v71h23q35 0 61 25.5t26 63.5 t-26 63.5t-63 25.5t-62.5 -25.5t-25.5 -67.5v-555h-74v560z" />
<glyph unicode="&#xe0;" d="M167.5 24q-64.5 39 -101.5 105.5t-37 145.5q0 80 37 146.5t101 105t142 38.5q81 0 142.5 -41.5t91.5 -109.5h4v136h77v-549h-77v136h-4q-33 -74 -94.5 -113t-139.5 -39q-77 0 -141.5 39zM430.5 88.5q48.5 28.5 76 78t27.5 108.5q0 60 -27.5 109.5t-76 78t-107.5 28.5 q-60 0 -108.5 -28.5t-76.5 -78t-28 -109.5q0 -59 28 -108.5t76.5 -78t108.5 -28.5q59 0 107.5 28.5zM378 628h-60l-81 162h87z" />
<glyph unicode="&#xe1;" d="M167.5 24q-64.5 39 -101.5 105.5t-37 145.5q0 80 37 146.5t101 105t142 38.5q81 0 142.5 -41.5t91.5 -109.5h4v136h77v-549h-77v136h-4q-33 -74 -94.5 -113t-139.5 -39q-77 0 -141.5 39zM430.5 88.5q48.5 28.5 76 78t27.5 108.5q0 60 -27.5 109.5t-76 78t-107.5 28.5 q-60 0 -108.5 -28.5t-76.5 -78t-28 -109.5q0 -59 28 -108.5t76.5 -78t108.5 -28.5q59 0 107.5 28.5zM380 628h-60l53 162h88z" />
<glyph unicode="&#xe2;" d="M167.5 24q-64.5 39 -101.5 105.5t-37 145.5q0 80 37 146.5t101 105t142 38.5q81 0 142.5 -41.5t91.5 -109.5h4v136h77v-549h-77v136h-4q-33 -74 -94.5 -113t-139.5 -39q-77 0 -141.5 39zM430.5 88.5q48.5 28.5 76 78t27.5 108.5q0 60 -27.5 109.5t-76 78t-107.5 28.5 q-60 0 -108.5 -28.5t-76.5 -78t-28 -109.5q0 -59 28 -108.5t76.5 -78t108.5 -28.5q59 0 107.5 28.5zM305 631h-69l85 130h56l84 -130h-70l-42 83z" />
<glyph unicode="&#xe3;" d="M167.5 24q-64.5 39 -101.5 105.5t-37 145.5q0 80 37 146.5t101 105t142 38.5q81 0 142.5 -41.5t91.5 -109.5h4v136h77v-549h-77v136h-4q-33 -74 -94.5 -113t-139.5 -39q-77 0 -141.5 39zM430.5 88.5q48.5 28.5 76 78t27.5 108.5q0 60 -27.5 109.5t-76 78t-107.5 28.5 q-60 0 -108.5 -28.5t-76.5 -78t-28 -109.5q0 -59 28 -108.5t76.5 -78t108.5 -28.5q59 0 107.5 28.5zM372.5 646q-16.5 6 -37.5 17q-18 10 -29 14.5t-23 4.5q-26 0 -43 -26l-54 36q36 55 97 55q21 -1 37 -6.5t38 -17.5q15 -9 26.5 -13.5t23.5 -4.5q9 0 24.5 6t28.5 24l52 -38 q-22 -32 -51.5 -44.5t-53.5 -12.5q-19 0 -35.5 6z" />
<glyph unicode="&#xe4;" d="M167.5 24q-64.5 39 -101.5 105.5t-37 145.5q0 80 37 146.5t101 105t142 38.5q81 0 142.5 -41.5t91.5 -109.5h4v136h77v-549h-77v136h-4q-33 -74 -94.5 -113t-139.5 -39q-77 0 -141.5 39zM430.5 88.5q48.5 28.5 76 78t27.5 108.5q0 60 -27.5 109.5t-76 78t-107.5 28.5 q-60 0 -108.5 -28.5t-76.5 -78t-28 -109.5q0 -59 28 -108.5t76.5 -78t108.5 -28.5q59 0 107.5 28.5zM249 649q-13 13 -13 31q0 19 13 31.5t31 12.5t30.5 -12.5t12.5 -31.5q0 -18 -12.5 -31t-30.5 -13t-31 13zM388 649q-13 13 -13 31q0 19 13 31.5t31 12.5t30.5 -12.5 t12.5 -31.5q0 -18 -12.5 -31t-30.5 -13t-31 13z" />
<glyph unicode="&#xe5;" d="M167.5 24q-64.5 39 -101.5 105.5t-37 145.5q0 80 37 146.5t101 105t142 38.5q81 0 142.5 -41.5t91.5 -109.5h4v136h77v-549h-77v136h-4q-33 -74 -94.5 -113t-139.5 -39q-77 0 -141.5 39zM430.5 88.5q48.5 28.5 76 78t27.5 108.5q0 60 -27.5 109.5t-76 78t-107.5 28.5 q-60 0 -108.5 -28.5t-76.5 -78t-28 -109.5q0 -59 28 -108.5t76.5 -78t108.5 -28.5q59 0 107.5 28.5zM279.5 634q-28.5 29 -28.5 70q0 40 28.5 69t69.5 29q40 0 69 -29t29 -69q0 -41 -29 -70t-69 -29q-41 0 -69.5 29zM385 667q15 15 15 37q0 21 -15 36t-36 15t-36 -15 t-15 -36q0 -22 15 -37t36 -15t36 15z" />
<glyph unicode="&#xe6;" horiz-adv-x="1185" d="M1154 250h-506q5 -53 34.5 -96.5t77 -68.5t102.5 -25q63 0 114 32t77 87h86q-31 -86 -104.5 -139.5t-167.5 -53.5q-86 0 -148.5 42t-94.5 115v-142h-77v136h-2q-33 -74 -96.5 -113t-142.5 -39q-76 0 -139.5 39t-100.5 106t-37 145q0 80 37 146.5t100.5 105t139.5 38.5 q81 0 145 -41.5t94 -109.5h2v136h77v-138q32 71 94.5 112t148.5 41q80 0 146 -38t104.5 -104.5t38.5 -146.5q0 -16 -2 -26zM430.5 88.5q48.5 28.5 76 78t27.5 108.5q0 60 -27.5 109.5t-76 78t-107.5 28.5q-60 0 -109 -28.5t-77.5 -78t-28.5 -109.5q0 -59 28.5 -108.5 t77.5 -78t109 -28.5q59 0 107.5 28.5zM1071 314q-5 49 -34.5 89.5t-75.5 63.5t-101 23t-101 -23t-75 -63.5t-34 -89.5h421z" />
<glyph unicode="&#xe7;" horiz-adv-x="543" d="M528 68q-38 -37 -86 -59t-103 -25q37 -20 37 -64t-27.5 -64t-74.5 -20v51q23 0 35.5 10.5t12.5 30.5q0 16 -11 26t-30 10v22q-70 9 -128 50t-91 104t-33 135q0 79 39.5 146t106.5 106.5t146 39.5q62 0 117.5 -24.5t96.5 -68.5l-53 -52q-30 33 -71.5 51.5t-89.5 18.5 q-58 0 -107 -29t-78 -79t-29 -109q0 -60 29 -109.5t78 -78.5t107 -29q45 0 84.5 16.5t69.5 45.5z" />
<glyph unicode="&#xe8;" horiz-adv-x="648" d="M175.5 25q-67.5 39 -107 106t-39.5 147q0 79 39.5 145t107 104t148.5 38t149 -38t107 -104.5t39 -146.5q0 -16 -1 -26h-506q4 -52 34 -95.5t77 -69t102 -25.5q63 0 114.5 32.5t76.5 86.5h86q-30 -86 -106 -139.5t-172 -53.5q-81 0 -148.5 39zM534 314q-5 49 -34.5 89.5 t-75.5 63.5t-101 23t-101 -23t-75 -63.5t-34 -89.5h421zM351 628h-60l-81 162h87z" />
<glyph unicode="&#xe9;" horiz-adv-x="648" d="M175.5 25q-67.5 39 -107 106t-39.5 147q0 79 39.5 145t107 104t148.5 38t149 -38t107 -104.5t39 -146.5q0 -16 -1 -26h-506q4 -52 34 -95.5t77 -69t102 -25.5q63 0 114.5 32.5t76.5 86.5h86q-30 -86 -106 -139.5t-172 -53.5q-81 0 -148.5 39zM534 314q-5 49 -34.5 89.5 t-75.5 63.5t-101 23t-101 -23t-75 -63.5t-34 -89.5h421zM353 628h-60l53 162h88z" />
<glyph unicode="&#xea;" horiz-adv-x="648" d="M175.5 25q-67.5 39 -107 106t-39.5 147q0 79 39.5 145t107 104t148.5 38t149 -38t107 -104.5t39 -146.5q0 -16 -1 -26h-506q4 -52 34 -95.5t77 -69t102 -25.5q63 0 114.5 32.5t76.5 86.5h86q-30 -86 -106 -139.5t-172 -53.5q-81 0 -148.5 39zM534 314q-5 49 -34.5 89.5 t-75.5 63.5t-101 23t-101 -23t-75 -63.5t-34 -89.5h421zM278 631h-69l85 130h56l84 -130h-70l-42 83z" />
<glyph unicode="&#xeb;" horiz-adv-x="648" d="M175.5 25q-67.5 39 -107 106t-39.5 147q0 79 39.5 145t107 104t148.5 38t149 -38t107 -104.5t39 -146.5q0 -16 -1 -26h-506q4 -52 34 -95.5t77 -69t102 -25.5q63 0 114.5 32.5t76.5 86.5h86q-30 -86 -106 -139.5t-172 -53.5q-81 0 -148.5 39zM534 314q-5 49 -34.5 89.5 t-75.5 63.5t-101 23t-101 -23t-75 -63.5t-34 -89.5h421zM222 649q-13 13 -13 31q0 19 13 31.5t31 12.5t30.5 -12.5t12.5 -31.5q0 -18 -12.5 -31t-30.5 -13t-31 13zM361 649q-13 13 -13 31q0 19 13 31.5t31 12.5t30.5 -12.5t12.5 -31.5q0 -18 -12.5 -31t-30.5 -13t-31 13z " />
<glyph unicode="&#xec;" horiz-adv-x="220" d="M149 1h-78v549h78v-549zM139 628h-60l-81 162h87z" />
<glyph unicode="&#xed;" horiz-adv-x="220" d="M149 1h-78v549h78v-549zM141 628h-60l53 162h88z" />
<glyph unicode="&#xee;" horiz-adv-x="220" d="M149 1h-78v549h78v-549zM66 631h-69l85 130h56l84 -130h-70l-42 83z" />
<glyph unicode="&#xef;" horiz-adv-x="220" d="M149 1h-78v549h78v-549zM10 649q-13 13 -13 31q0 19 13 31.5t31 12.5t30.5 -12.5t12.5 -31.5q0 -18 -12.5 -31t-30.5 -13t-31 13zM149 649q-13 13 -13 31q0 19 13 31.5t31 12.5t30.5 -12.5t12.5 -31.5q0 -18 -12.5 -31t-30.5 -13t-31 13z" />
<glyph unicode="&#xf0;" horiz-adv-x="560" d="M491 371q41 -63 41 -137q0 -67 -34 -124t-92 -91t-126 -34q-67 0 -125 34t-92.5 91t-34.5 124q0 64 31 120t84.5 89.5t117.5 33.5q44 0 80 -21l4 2l-66 103l-81 -28l-36 52l83 29l-59 91h93l41 -65l76 27l36 -52l-78 -27zM367.5 87q39.5 23 62.5 62t23 85q0 47 -23 87 t-62.5 63t-86.5 23t-87 -23t-63.5 -63t-23.5 -87q0 -46 23.5 -85t63.5 -62t87 -23t86.5 23z" />
<glyph unicode="&#xf1;" horiz-adv-x="625" d="M149 0h-78v550h483v-550h-78v474h-327v-474zM490 650h-355v60h355v-60z" />
<glyph unicode="&#xf2;" horiz-adv-x="641" d="M175 24q-67 39 -106.5 105.5t-39.5 144.5q0 79 39.5 145.5t106.5 105t146 38.5t146 -38.5t106.5 -105t39.5 -145.5q0 -78 -39.5 -144.5t-106.5 -105.5t-146 -39t-146 39zM428 88.5q49 28.5 77.5 77.5t28.5 108q0 61 -28.5 110t-77.5 76.5t-107 27.5q-59 0 -108 -27.5 t-77.5 -76.5t-28.5 -110q0 -59 29 -108t78 -77.5t107 -28.5t107 28.5zM349 628h-60l-81 162h87z" />
<glyph unicode="&#xf3;" horiz-adv-x="641" d="M175 24q-67 39 -106.5 105.5t-39.5 144.5q0 79 39.5 145.5t106.5 105t146 38.5t146 -38.5t106.5 -105t39.5 -145.5q0 -78 -39.5 -144.5t-106.5 -105.5t-146 -39t-146 39zM428 88.5q49 28.5 77.5 77.5t28.5 108q0 61 -28.5 110t-77.5 76.5t-107 27.5q-59 0 -108 -27.5 t-77.5 -76.5t-28.5 -110q0 -59 29 -108t78 -77.5t107 -28.5t107 28.5zM352 628h-60l53 162h88z" />
<glyph unicode="&#xf4;" horiz-adv-x="641" d="M175 24q-67 39 -106.5 105.5t-39.5 144.5q0 79 39.5 145.5t106.5 105t146 38.5t146 -38.5t106.5 -105t39.5 -145.5q0 -78 -39.5 -144.5t-106.5 -105.5t-146 -39t-146 39zM428 88.5q49 28.5 77.5 77.5t28.5 108q0 61 -28.5 110t-77.5 76.5t-107 27.5q-59 0 -108 -27.5 t-77.5 -76.5t-28.5 -110q0 -59 29 -108t78 -77.5t107 -28.5t107 28.5zM277 631h-69l85 130h56l84 -130h-70l-42 83z" />
<glyph unicode="&#xf5;" horiz-adv-x="641" d="M175 24q-67 39 -106.5 105.5t-39.5 144.5q0 79 39.5 145.5t106.5 105t146 38.5t146 -38.5t106.5 -105t39.5 -145.5q0 -78 -39.5 -144.5t-106.5 -105.5t-146 -39t-146 39zM428 88.5q49 28.5 77.5 77.5t28.5 108q0 61 -28.5 110t-77.5 76.5t-107 27.5q-59 0 -108 -27.5 t-77.5 -76.5t-28.5 -110q0 -59 29 -108t78 -77.5t107 -28.5t107 28.5zM343.5 646q-16.5 6 -37.5 17q-18 10 -29 14.5t-23 4.5q-26 0 -43 -26l-54 36q36 55 97 55q21 -1 37 -6.5t38 -17.5q15 -9 26.5 -13.5t23.5 -4.5q9 0 24.5 6t28.5 24l52 -38q-22 -32 -51.5 -44.5 t-53.5 -12.5q-19 0 -35.5 6z" />
<glyph unicode="&#xf6;" horiz-adv-x="641" d="M175 24q-67 39 -106.5 105.5t-39.5 144.5q0 79 39.5 145.5t106.5 105t146 38.5t146 -38.5t106.5 -105t39.5 -145.5q0 -78 -39.5 -144.5t-106.5 -105.5t-146 -39t-146 39zM428 88.5q49 28.5 77.5 77.5t28.5 108q0 61 -28.5 110t-77.5 76.5t-107 27.5q-59 0 -108 -27.5 t-77.5 -76.5t-28.5 -110q0 -59 29 -108t78 -77.5t107 -28.5t107 28.5zM220 649q-13 13 -13 31q0 19 13 31.5t31 12.5t30.5 -12.5t12.5 -31.5q0 -18 -12.5 -31t-30.5 -13t-31 13zM359 649q-13 13 -13 31q0 19 13 31.5t31 12.5t30.5 -12.5t12.5 -31.5q0 -18 -12.5 -31 t-30.5 -13t-31 13z" />
<glyph unicode="&#xf7;" horiz-adv-x="493" d="M214 506.5q-14 14.5 -14 34.5t14 34.5t35 14.5q20 0 34 -14.5t14 -34.5t-14 -34.5t-34 -14.5q-21 0 -35 14.5zM456 320h-419v71h419v-71zM214 123.5q-14 14.5 -14 34.5t14 34.5t35 14.5q20 0 34 -14.5t14 -34.5t-14 -34.5t-34 -14.5q-21 0 -35 14.5z" />
<glyph unicode="&#xf8;" horiz-adv-x="641" d="M547 457q31 -38 48.5 -84.5t17.5 -98.5q0 -78 -39.5 -144.5t-106.5 -105.5t-146 -39q-101 0 -180 62l-41 -42l-45 46l40 41q-31 38 -48.5 84.5t-17.5 97.5q0 79 39.5 145.5t106.5 105t146 38.5q50 0 96.5 -16t83.5 -45l41 41l45 -45zM146 143l305 308q-57 41 -130 41 q-61 0 -111 -28.5t-78.5 -78.5t-28.5 -111q0 -74 43 -131zM431 85.5q50 29.5 78.5 79.5t28.5 109q0 76 -42 132l-305 -308q56 -42 130 -42q60 0 110 29.5z" />
<glyph unicode="&#xf9;" horiz-adv-x="573" d="M169 12.5q-52 27.5 -82 79t-30 119.5v339h79v-343q0 -70 42 -108.5t108 -38.5q67 0 109 39t42 108v343h78v-339q0 -68 -30 -119.5t-82 -79t-117 -27.5t-117 27.5zM315 628h-60l-81 162h87z" />
<glyph unicode="&#xfa;" horiz-adv-x="573" d="M169 12.5q-52 27.5 -82 79t-30 119.5v339h79v-343q0 -70 42 -108.5t108 -38.5q67 0 109 39t42 108v343h78v-339q0 -68 -30 -119.5t-82 -79t-117 -27.5t-117 27.5zM317 628h-60l53 162h88z" />
<glyph unicode="&#xfb;" horiz-adv-x="573" d="M169 12.5q-52 27.5 -82 79t-30 119.5v339h79v-343q0 -70 42 -108.5t108 -38.5q67 0 109 39t42 108v343h78v-339q0 -68 -30 -119.5t-82 -79t-117 -27.5t-117 27.5zM243 631h-69l85 130h56l84 -130h-70l-42 83z" />
<glyph unicode="&#xfc;" horiz-adv-x="573" d="M169 12.5q-52 27.5 -82 79t-30 119.5v339h79v-343q0 -70 42 -108.5t108 -38.5q67 0 109 39t42 108v343h78v-339q0 -68 -30 -119.5t-82 -79t-117 -27.5t-117 27.5zM186 649q-13 13 -13 31q0 19 13 31.5t31 12.5t30.5 -12.5t12.5 -31.5q0 -18 -12.5 -31t-30.5 -13t-31 13z M325 649q-13 13 -13 31q0 19 13 31.5t31 12.5t30.5 -12.5t12.5 -31.5q0 -18 -12.5 -31t-30.5 -13t-31 13z" />
<glyph unicode="&#xfd;" horiz-adv-x="531" d="M200 -157h-85l113 235l-226 472h85l185 -384l172 384h85zM297 628h-60l53 162h88z" />
<glyph unicode="&#xfe;" d="M71 -157v862h79v-295h4q28 71 91 112t144 41q76 0 139.5 -39t100.5 -105t37 -145q0 -80 -37 -146.5t-100.5 -105t-139.5 -38.5q-80 0 -140.5 39t-94.5 110h-4v-290h-79zM480 86q49 28 77.5 77.5t28.5 110.5t-28.5 110t-77.5 76.5t-108 27.5q-58 0 -106.5 -27.5 t-76.5 -76.5t-28 -110t28 -110.5t76.5 -77.5t106.5 -28q59 0 108 28z" />
<glyph unicode="&#xff;" horiz-adv-x="531" d="M200 -157h-85l113 235l-226 472h85l185 -384l172 384h85zM165 649q-13 13 -13 31q0 19 13 31.5t31 12.5t30.5 -12.5t12.5 -31.5q0 -18 -12.5 -31t-30.5 -13t-31 13zM304 649q-13 13 -13 31q0 19 13 31.5t31 12.5t30.5 -12.5t12.5 -31.5q0 -18 -12.5 -31t-30.5 -13t-31 13 z" />
<glyph unicode="&#x131;" horiz-adv-x="220" d="M149 1h-78v549h78v-549z" />
<glyph unicode="&#x152;" horiz-adv-x="1169" d="M1132 631h-367v-241h310v-74h-310v-242h367v-74h-445v153q-42 -78 -116 -123.5t-171 -45.5q-98 0 -180.5 48.5t-131 133t-48.5 186.5q0 103 48.5 186.5t131 131.5t180.5 48q97 0 171 -45t116 -123v155h445v-74zM548.5 99q63.5 39 99.5 105.5t36 147.5q0 80 -36 147 t-99.5 106t-141.5 39q-79 0 -144.5 -39t-103.5 -106t-38 -147t38 -147t103.5 -106t144.5 -39q78 0 141.5 39z" />
<glyph unicode="&#x153;" horiz-adv-x="1160" d="M1130 249h-506q4 -53 33.5 -96t77 -68t102.5 -25q63 0 114.5 32.5t76.5 86.5h86q-30 -86 -106 -139.5t-172 -53.5q-86 0 -155 44.5t-103 118.5q-34 -74 -103 -119t-154 -45q-79 0 -146 39t-106.5 105.5t-39.5 144.5q0 79 39.5 145.5t106.5 105t146 38.5q84 0 152.5 -43.5 t103.5 -116.5q34 74 103 118t156 44q81 0 149 -38t107 -104.5t39 -146.5q0 -18 -1 -27zM1046 315q-5 49 -34.5 89t-76 63t-100.5 23q-55 0 -101 -23t-75 -63t-34 -89h421zM428 88.5q49 28.5 77.5 77.5t28.5 108q0 61 -28.5 110t-77.5 76.5t-107 27.5q-59 0 -108 -27.5 t-77.5 -76.5t-28.5 -110q0 -59 29 -108t78 -77.5t107 -28.5t107 28.5z" />
<glyph unicode="&#x178;" horiz-adv-x="583" d="M252 0v283l-246 422h89l186 -318q3 -5 9 -20h2l10 20l186 318h89l-246 -422v-283h-79zM192 804q-13 13 -13 31q0 19 13 31.5t31 12.5t30.5 -12.5t12.5 -31.5q0 -18 -12.5 -31t-30.5 -13t-31 13zM331 804q-13 13 -13 31q0 19 13 31.5t31 12.5t30.5 -12.5t12.5 -31.5 q0 -18 -12.5 -31t-30.5 -13t-31 13z" />
<glyph unicode="&#x2c6;" horiz-adv-x="258" d="M86 631h-69l85 130h56l84 -130h-70l-42 83z" />
<glyph unicode="&#x2dc;" horiz-adv-x="361" d="M203.5 646q-16.5 6 -37.5 17q-18 10 -29 14.5t-23 4.5q-26 0 -43 -26l-54 36q36 55 97 55q21 -1 37 -6.5t38 -17.5q15 -9 26.5 -13.5t23.5 -4.5q9 0 24.5 6t28.5 24l52 -38q-22 -32 -51.5 -44.5t-53.5 -12.5q-19 0 -35.5 6z" />
<glyph unicode="&#x300;" horiz-adv-x="0" d="M-17 628h-60l-81 162h87z" />
<glyph unicode="&#x301;" horiz-adv-x="0" d="M-98 628h-60l53 162h88z" />
<glyph unicode="&#x302;" horiz-adv-x="0" d="M-172 631h-69l85 130h56l84 -130h-70l-42 83z" />
<glyph unicode="&#x303;" horiz-adv-x="0" d="M-157.5 646q-16.5 6 -37.5 17q-18 10 -29 14.5t-23 4.5q-26 0 -43 -26l-54 36q36 55 97 55q21 -1 37 -6.5t38 -17.5q15 -9 26.5 -13.5t23.5 -4.5q9 0 24.5 6t28.5 24l52 -38q-22 -32 -51.5 -44.5t-53.5 -12.5q-19 0 -35.5 6z" />
<glyph unicode="&#x304;" horiz-adv-x="0" d="M-17 650h-355v60h355v-60z" />
<glyph unicode="&#x308;" horiz-adv-x="0" d="M-230 649q-13 13 -13 31q0 19 13 31.5t31 12.5t30.5 -12.5t12.5 -31.5q0 -18 -12.5 -31t-30.5 -13t-31 13zM-91 649q-13 13 -13 31q0 19 13 31.5t31 12.5t30.5 -12.5t12.5 -31.5q0 -18 -12.5 -31t-30.5 -13t-31 13z" />
<glyph unicode="&#x30a;" horiz-adv-x="0" d="M-184.5 634q-28.5 29 -28.5 70q0 40 28.5 69t69.5 29q40 0 69 -29t29 -69q0 -41 -29 -70t-69 -29q-41 0 -69.5 29zM-79 667q15 15 15 37q0 21 -15 36t-36 15t-36 -15t-15 -36q0 -22 15 -37t36 -15t36 15z" />
<glyph unicode="&#x2000;" horiz-adv-x="478" />
<glyph unicode="&#x2001;" horiz-adv-x="957" />
<glyph unicode="&#x2002;" horiz-adv-x="478" />
<glyph unicode="&#x2003;" horiz-adv-x="957" />
<glyph unicode="&#x2004;" horiz-adv-x="319" />
<glyph unicode="&#x2005;" horiz-adv-x="239" />
<glyph unicode="&#x2006;" horiz-adv-x="159" />
<glyph unicode="&#x2007;" horiz-adv-x="159" />
<glyph unicode="&#x2008;" horiz-adv-x="119" />
<glyph unicode="&#x2009;" horiz-adv-x="191" />
<glyph unicode="&#x200a;" horiz-adv-x="53" />
<glyph unicode="&#x2010;" horiz-adv-x="356" d="M326 233h-296v71h296v-71z" />
<glyph unicode="&#x2011;" horiz-adv-x="356" d="M326 233h-296v71h296v-71z" />
<glyph unicode="&#x2012;" horiz-adv-x="356" d="M326 233h-296v71h296v-71z" />
<glyph unicode="&#x2013;" horiz-adv-x="550" d="M514 233h-477v71h477v-71z" />
<glyph unicode="&#x2014;" horiz-adv-x="919" d="M882 233h-845v71h845v-71z" />
<glyph unicode="&#x2018;" horiz-adv-x="168" d="M111 610q10 -6 15.5 -16.5t5.5 -22.5q0 -20 -14.5 -34.5t-34.5 -14.5t-34.5 14.5t-14.5 34.5q0 10 5 23l43 117h50z" />
<glyph unicode="&#x2019;" horiz-adv-x="168" d="M57 626q-10 6 -15.5 16.5t-5.5 22.5q0 20 14.5 35t34.5 15t34.5 -15t14.5 -35q0 -10 -5 -22l-43 -118h-50z" />
<glyph unicode="&#x201a;" horiz-adv-x="168" d="M57 -3q-10 6 -15.5 16.5t-5.5 22.5q0 20 14.5 35t34.5 15t34.5 -15t14.5 -35q0 -10 -5 -22l-43 -118h-50z" />
<glyph unicode="&#x201c;" horiz-adv-x="319" d="M111 609q10 -6 15.5 -16.5t5.5 -22.5q0 -20 -14.5 -34.5t-34.5 -14.5t-34.5 14.5t-14.5 34.5q0 10 5 23l43 117h50zM262 609q10 -6 15.5 -16.5t5.5 -22.5q0 -20 -14 -34.5t-35 -14.5q-20 0 -34.5 14.5t-14.5 34.5q0 11 6 23l42 117h51z" />
<glyph unicode="&#x201d;" horiz-adv-x="319" d="M57 627q-10 6 -15.5 16.5t-5.5 22.5q0 20 14.5 35t34.5 15t34.5 -15t14.5 -35q0 -10 -5 -22l-43 -118h-50zM208 627q-10 6 -15.5 16.5t-5.5 22.5q0 20 14.5 35t34.5 15t34.5 -15t14.5 -35q0 -10 -5 -22l-43 -118h-50z" />
<glyph unicode="&#x201e;" horiz-adv-x="319" d="M57 -3q-10 6 -15.5 16.5t-5.5 22.5q0 20 14.5 35t34.5 15t34.5 -15t14.5 -35q0 -10 -5 -22l-43 -118h-50zM208 -3q-10 6 -15.5 16.5t-5.5 22.5q0 20 14.5 35t34.5 15t34.5 -15t14.5 -35q0 -10 -5 -22l-43 -118h-50z" />
<glyph unicode="&#x2022;" horiz-adv-x="268" d="M83.5 232q-28.5 17 -45 45.5t-16.5 61.5q0 52 36 88.5t88 36.5q51 0 87 -36.5t36 -88.5q0 -33 -16.5 -61.5t-45 -45.5t-61.5 -17q-34 0 -62.5 17z" />
<glyph unicode="&#x2026;" horiz-adv-x="561" d="M444.5 6.5q-14.5 14.5 -14.5 34.5t14.5 34.5t34.5 14.5t34.5 -14.5t14.5 -34.5t-14.5 -34.5t-34.5 -14.5t-34.5 14.5zM246.5 6.5q-14.5 14.5 -14.5 34.5t14.5 34.5t34.5 14.5t34.5 -14.5t14.5 -34.5t-14.5 -34.5t-34.5 -14.5t-34.5 14.5zM47.5 6.5q-14.5 14.5 -14.5 34.5 t14.5 34.5t34.5 14.5t34.5 -14.5t14.5 -34.5t-14.5 -34.5t-34.5 -14.5t-34.5 14.5z" />
<glyph unicode="&#x202f;" horiz-adv-x="191" />
<glyph unicode="&#x2039;" horiz-adv-x="236" d="M206 95h-89l-90 172l90 171h89l-96 -171z" />
<glyph unicode="&#x203a;" horiz-adv-x="236" d="M209 267l-90 -172h-89l96 172l-96 171h89z" />
<glyph unicode="&#x205f;" horiz-adv-x="239" />
<glyph unicode="&#x20ac;" horiz-adv-x="656" d="M294 22q-75 37 -127 102t-71 146h-79v56h70q-2 18 -2 27q0 13 1 18h-69v57h77q17 83 68.5 149.5t128 104.5t164.5 38q87 0 163 -38l-25 -72q-65 35 -138 35q-66 0 -124.5 -27.5t-98.5 -77t-53 -112.5h355l-19 -57h-351v-18q0 -18 1 -27h335l-18 -56h-302 q15 -62 55.5 -110t97.5 -74t122 -26q59 0 113 23l25 -72q-66 -26 -138 -26q-86 0 -161 37z" />
<glyph unicode="&#x2122;" horiz-adv-x="787" d="M111 653h-101v52h260v-52h-99v-364h-60v364zM662 705h88v-416h-59v332h-2q-6 -22 -11 -36l-115 -295h-46l-114 295q-9 26 -12 36h-1v-332h-60v416h87l123 -331z" />
<glyph unicode="&#x25fc;" horiz-adv-x="550" d="M0 550h550v-550h-550v550z" />
</font>
</defs>
</svg>
